<svg xmlns="http://www.w3.org/2000/svg" viewBox="0 0 749.21 545.1"><defs><style>.cls-1{fill:#fff;}</style></defs><g id="Layer_2" data-name="Layer 2"><g id="Layer_2-2" data-name="Layer 2"><path class="cls-1" d="M305.17,416.18C256,459.29,198.24,494.7,133.4,507.43c-15,2.94-30.44,5.09-45.71,3.81-1.62-.13-2-.34,0,.05-.55-.11-1.11-.16-1.66-.26a108.39,108.39,0,0,1-14.1-3.51,85.37,85.37,0,0,1-18.34-8.64c-11.43-7.1-21.27-16.22-27.6-29.08s-6.65-28.37-5.9-42.4c1.79-33.44,16.78-65.57,38-90.15,20.72-23.94,46.14-40.84,72.06-58.55,12.5-8.54,27.73-17,33.76-31.64,7.06-17.2-2.61-35.45-10.77-50.31q-2.2-4-4.07-8.13c-.66-1.45.11.29.19.49l-.66-1.61c-.67-1.7-1.33-3.4-1.94-5.13A145.28,145.28,0,0,1,140,155.51a84.81,84.81,0,0,1,2.91-39.75c4.15-12.41,13.16-25.26,25.88-32.55a56.1,56.1,0,0,1,25-7.26,81,81,0,0,1,9.73.11c1.5.1,3,.26,4.48.43s-1.6-.24-.15,0l1.77.27C223.25,79,236.21,83,246,93.3c10.27,10.79,13.93,25.45,13.68,39.41,0,2.35-.23,4.68-.43,7-.24,2.81.32-1.17,0,.2-.13.56-.18,1.16-.28,1.73-1,5.31,1.44,10.78,7,12.3,4.84,1.33,11.34-1.64,12.3-7,5.71-31.83-6.45-66.75-36.84-81.53-30.07-14.63-69-13.17-94.81,9.19-11.91,10.32-20,24.77-24.24,39.85-4.68,16.71-4,33.48-1,50.4A144.53,144.53,0,0,0,138,210.5c4.17,7.45,7.86,14.93,8.28,23.63.33,7-4.85,12-10.53,16.42-11.64,9.17-24.63,17-36.82,25.46-14.11,9.75-27.9,19.82-40.32,31.7-26.68,25.53-47.27,57.74-55,94.15A161,161,0,0,0,.37,446.35c1.47,21.88,9.69,42,26.09,57,20,18.22,46.49,29.09,73.64,28.24,73.57-2.31,141.43-39.4,198.07-83.7q10.83-8.46,21.15-17.53c4.06-3.56,3.64-10.5,0-14.14-4-4-10.07-3.57-14.15,0Z"/><path class="cls-1" d="M219.09,375.08q63.06,82,124.7,165.09c3.21,4.33,8.65,6.53,13.68,3.59,4.27-2.5,6.82-9.32,3.58-13.68Q299.43,447,236.36,365c-3.29-4.28-8.6-6.56-13.68-3.59-4.21,2.46-6.9,9.37-3.59,13.68Z"/><path class="cls-1" d="M331.74,162.24c-10.27,51.82-21.68,103.45-31.31,155.39-2.47,13.34-6.57,28.65-3.9,42.27,2.05,10.47,11.73,16.18,21.88,12.72,7.36-2.51,13.61-7.94,19.2-13.15,10.46-9.75,19.64-20.89,28.58-32,3.38-4.21,4.11-10,0-14.15-3.5-3.49-10.74-4.23-14.14,0a349.48,349.48,0,0,1-24.36,27.92c-2.78,2.8-5.67,5.44-8.65,8-.32.27-2.48,1.93-.41.37-.56.42-1.12.84-1.69,1.23-1,.69-2,1.36-3,1.95-1.34.76-3.61.94-.63.46a7.92,7.92,0,0,0-2.17.66c-.26.19,2.93-.08.55-.2-.83,0-1.56-.51,1.89.26-1-.23-1.78-.91,1.26.64-2-1,1.07,1,.64.63-1.3-1.26,1.65,2.6.48.56-.92-1.61.44,2.62.32.7-.06-1.1-.14-4-.22-.26.1-4.67,0-9.18.51-13.86.09-.78.18-1.55.28-2.33-.33,2.6.05-.26.11-.65.28-1.82.55-3.64.85-5.46.7-4.25,1.47-8.5,2.26-12.73,4.84-25.78,10.37-51.43,15.61-77.14q7.78-38.24,15.37-76.52c1.05-5.3-1.5-10.8-7-12.31-4.92-1.35-11.25,1.67-12.3,7Z"/><path class="cls-1" d="M298,211.16l68.87.52c12.88.1,12.89-19.9,0-20L298,191.16c-12.87-.1-12.88,19.9,0,20Z"/><path class="cls-1" d="M436.78,10a3033,3033,0,0,1-42.07,320q-7.81,42-16.8,83.69c-2.7,12.55,16.58,17.91,19.29,5.31a3084.68,3084.68,0,0,0,51.15-317.94q4.89-45.48,8.43-91.09c.42-5.39-4.89-10-10-10-5.76,0-9.58,4.59-10,10Z"/><path class="cls-1" d="M497.88,176.09,407.71,277.36c-8.53,9.59,5.56,23.78,14.14,14.14Q466.94,240.88,512,190.23c8.53-9.59-5.56-23.78-14.14-14.14Z"/><path class="cls-1" d="M500.28,370.17l-78.43-92.81c-3.48-4.13-10.55-3.59-14.14,0-4.09,4.09-3.5,10,0,14.14l78.43,92.82c3.48,4.12,10.55,3.59,14.14,0,4.09-4.09,3.5-10,0-14.15Z"/><path class="cls-1" d="M576.16,211.51c-36.86.84-68.31,26.94-79.44,61.58-10.57,32.86.9,70.86,26.41,93.76,27,24.19,66.65,28.19,97.1,7.86,29.83-19.9,46.24-56.47,39.66-91.9-7.37-39.61-43.11-71.37-83.73-71.3-12.86,0-12.89,20,0,20,28.13,0,52.85,19.79,61.71,46.13s.12,55.17-20.18,73.83c-20.65,19-50.71,21.9-74.09,6.18-21.45-14.42-34.12-42.58-30.28-68.16,4.65-30.91,31-57.26,62.84-58C589,231.21,589.06,211.21,576.16,211.51Z"/><path class="cls-1" d="M693.73,162.81c-3.06,53-9.65,105.52-15.56,158.26-1.2,10.68-3.57,23.35-.35,33.92,3.49,11.41,15.42,14.1,24.92,8,6.83-4.37,12.33-10.72,17.38-17,10-12.34,18.88-25.54,27.46-38.89,7-10.85-10.32-20.89-17.27-10.09-11,17.13-21.57,34.12-36.45,47.8-1.74,1.6,1.58-.88-.84.62-.72.45-1.62.83-2.28,1.34-.92.71,2.57-.7.3-.23-1.21.25,3.18,0,.69-.17,1.93.11,1.79,0,3.45.91-1.52-.84,2.12,2.06.75.56,1.13,1.23,1.4,2.24.64.58,1.08,2.35.63,1.86.24.12s.21-1.87-.07.14a16.71,16.71,0,0,0-.22-2.81c-.1-2.23,0-4.46.05-6.69.28-6.37,1-12.73,1.7-19.06,2.33-20.54,5.1-41,7.38-61.57q5.29-47.79,8.08-95.8c.74-12.86-19.26-12.82-20,0Z"/><path class="cls-1" d="M670.08,204.9l68.08-.79c12.87-.14,12.9-20.14,0-20l-68.08.79c-12.86.15-12.9,20.15,0,20Z"/></g></g></svg>